<svg width="30" height="30" viewBox="0 0 30 30" fill="none" xmlns="http://www.w3.org/2000/svg">
<path d="M5.52499 25.7238C5.35156 25.7235 5.1801 25.6871 5.0215 25.617C4.86289 25.5468 4.72063 25.4444 4.60374 25.3163C4.48474 25.1893 4.39393 25.0385 4.33727 24.874C4.28062 24.7094 4.25939 24.5347 4.27499 24.3613L4.58124 20.9938L18.7287 6.85132L23.15 11.2713L9.00624 25.4126L5.63874 25.7188C5.60092 25.7223 5.56296 25.724 5.52499 25.7238ZM24.0325 10.3876L19.6125 5.96757L22.2637 3.31632C22.3798 3.20009 22.5177 3.1079 22.6694 3.04499C22.8212 2.98209 22.9838 2.94971 23.1481 2.94971C23.3124 2.94971 23.475 2.98209 23.6268 3.04499C23.7785 3.1079 23.9164 3.20009 24.0325 3.31632L26.6837 5.96757C26.8 6.08366 26.8922 6.22152 26.9551 6.37327C27.018 6.52501 27.0503 6.68767 27.0503 6.85194C27.0503 7.01621 27.018 7.17887 26.9551 7.33062C26.8922 7.48236 26.8 7.62022 26.6837 7.73632L24.0337 10.3863L24.0325 10.3876Z" fill="#828282"/>
</svg>
