<svg width="11" height="8" viewBox="0 0 11 8" fill="none" xmlns="http://www.w3.org/2000/svg">
<path d="M0.0623112 0.285876C0.0160303 0.372154 -0.00514507 0.469024 0.00105667 0.566089C0.00725937 0.663154 0.0406027 0.756749 0.0975122 0.836827L5.04777 7.77039C5.09839 7.84124 5.16597 7.89913 5.24471 7.93912C5.32345 7.97911 5.41101 8 5.4999 8C5.58878 8 5.67635 7.97911 5.75509 7.93912C5.83383 7.89913 5.9014 7.84124 5.95202 7.77039L10.9023 0.836827C10.9594 0.756811 10.9928 0.663173 10.999 0.566052C11.0051 0.468932 10.9838 0.37203 10.9372 0.285838C10.8906 0.199647 10.8206 0.127451 10.7348 0.0770675C10.6489 0.026684 10.5505 3.28455e-05 10.4502 7.24456e-09L0.549636 7.24456e-09C0.449236 -1.60365e-05 0.350745 0.0266158 0.264841 0.077009C0.178937 0.127402 0.108896 0.199634 0.0623112 0.285876Z" fill="#828282"/>
</svg>
