<svg width="30" height="30" viewBox="0 0 30 30" fill="none" xmlns="http://www.w3.org/2000/svg">
<path d="M15 2.40002C11.6583 2.40002 8.45344 3.72752 6.09048 6.09048C3.72752 8.45344 2.40002 11.6583 2.40002 15C2.40002 18.3418 3.72752 21.5466 6.09048 23.9096C8.45344 26.2725 11.6583 27.6 15 27.6C18.3418 27.6 21.5466 26.2725 23.9096 23.9096C26.2725 21.5466 27.6 18.3418 27.6 15C27.6 11.6583 26.2725 8.45344 23.9096 6.09048C21.5466 3.72752 18.3418 2.40002 15 2.40002ZM22.1835 19.5915L19.59 22.185L15 17.5935L10.4085 22.1835L7.81502 19.59L12.408 15L7.81652 10.4085L10.41 7.81652L15 12.4065L19.5915 7.81502L22.185 10.4085L17.592 15L22.1835 19.5915Z" fill="#232323"/>
</svg>
