<svg width="15" height="15" viewBox="0 0 15 15" fill="none" xmlns="http://www.w3.org/2000/svg">
<path d="M8.40002 6.3999V1.3999C8.40002 1.13469 8.29467 0.880332 8.10713 0.692795C7.9196 0.505259 7.66524 0.399902 7.40002 0.399902C7.13481 0.399902 6.88045 0.505259 6.69292 0.692795C6.50538 0.880332 6.40002 1.13469 6.40002 1.3999V6.3999H1.40002C1.13481 6.3999 0.880454 6.50526 0.692917 6.6928C0.505381 6.88033 0.400024 7.13469 0.400024 7.3999C0.400024 7.66512 0.505381 7.91947 0.692917 8.10701C0.880454 8.29455 1.13481 8.3999 1.40002 8.3999H6.40002V13.3999C6.40002 13.6651 6.50538 13.9195 6.69292 14.107C6.88045 14.2945 7.13481 14.3999 7.40002 14.3999C7.66524 14.3999 7.9196 14.2945 8.10713 14.107C8.29467 13.9195 8.40002 13.6651 8.40002 13.3999V8.3999H13.4C13.6652 8.3999 13.9196 8.29455 14.1071 8.10701C14.2947 7.91947 14.4 7.66512 14.4 7.3999C14.4 7.13469 14.2947 6.88033 14.1071 6.6928C13.9196 6.50526 13.6652 6.3999 13.4 6.3999H8.40002Z" fill="#828282"/>
</svg>
